<?xml version="1.0" encoding="iso-8859-1"?>
<!-- Generator: Adobe Illustrator 18.0.0, SVG Export Plug-In . SVG Version: 6.00 Build 0)  -->
<!DOCTYPE svg PUBLIC "-//W3C//DTD SVG 1.1//EN" "http://www.w3.org/Graphics/SVG/1.1/DTD/svg11.dtd">
<svg version="1.1" id="Capa_1" xmlns="http://www.w3.org/2000/svg" xmlns:xlink="http://www.w3.org/1999/xlink" x="0px" y="0px"
	 viewBox="0 0 297 297" style="enable-background:new 0 0 297 297;" xml:space="preserve">
<g>
	<path d="M236.958,264.385c19.619,0,35.58-15.962,35.58-35.581V144.29c3.449-3.334,6.409-5.005,9.29-6.63
		c10.279-5.8,15.172-11.758,15.172-29.93c0-28.742-11.389-49.461-33.85-61.579c-17.117-9.234-40.594-13.536-73.881-13.536H107.73
		c-33.287,0-56.764,4.302-73.881,13.536C11.389,58.27,0,78.988,0,107.73c0,18.172,4.893,24.13,15.172,29.93
		c2.881,1.625,5.841,3.296,9.29,6.63v84.514c0,19.619,15.961,35.581,35.58,35.581H236.958z M60.042,244.617
		c-8.719,0-15.814-7.094-15.814-15.814v-88.458c0-2.408-0.879-4.733-2.473-6.54c-6.755-7.653-12.843-11.089-16.87-13.361
		c-2.154-1.216-3.493-1.991-3.852-2.6c-0.381-0.645-1.267-2.922-1.267-10.113c0-39.313,25.485-55.348,87.964-55.348
		s87.964,16.035,87.964,55.348c0,7.191-0.886,9.469-1.267,10.113c-0.359,0.609-1.698,1.385-3.853,2.6
		c-4.027,2.272-10.115,5.708-16.87,13.361c-1.594,1.807-2.473,4.132-2.473,6.54v88.458c0,8.72-7.095,15.814-15.814,15.814H60.042z
		 M275.967,117.844c-0.359,0.609-1.698,1.385-3.853,2.6c-4.027,2.272-10.115,5.708-16.87,13.361
		c-1.594,1.807-2.473,4.132-2.473,6.54v88.458c0,8.72-7.095,15.814-15.813,15.814h-49.679c2.375-4.767,3.72-10.136,3.72-15.814
		V144.29c3.449-3.334,6.409-5.005,9.29-6.63c10.279-5.8,15.172-11.758,15.172-29.93c0-24.291-8.136-42.851-24.214-55.331
		c61.021,0.342,85.986,16.441,85.986,55.331C277.233,114.922,276.348,117.199,275.967,117.844z"/>
	<path d="M114.72,84.434c-3.861-3.858-10.117-3.858-13.979,0L68.126,117.05c-3.86,3.859-3.86,10.117,0,13.978
		c1.931,1.93,4.459,2.895,6.989,2.895c2.529,0,5.058-0.965,6.988-2.895l32.616-32.616C118.579,94.552,118.579,88.294,114.72,84.434z
		"/>
	<path d="M133.357,100.741l-32.616,32.616c-3.859,3.859-3.859,10.118,0,13.978c1.931,1.93,4.459,2.895,6.989,2.895
		c2.529,0,5.059-0.965,6.989-2.895l32.615-32.615c3.859-3.86,3.859-10.118,0-13.979C143.475,96.883,137.218,96.883,133.357,100.741z
		"/>
</g>
<g>
</g>
<g>
</g>
<g>
</g>
<g>
</g>
<g>
</g>
<g>
</g>
<g>
</g>
<g>
</g>
<g>
</g>
<g>
</g>
<g>
</g>
<g>
</g>
<g>
</g>
<g>
</g>
<g>
</g>
</svg>
