<svg xmlns="http://www.w3.org/2000/svg" viewBox="0 0 52.04 92"><title>icon-step-download</title><path d="M52 67V12A12 12 0 0 0 40 0H12A12 12 0 0 0 0 12v68a12 12 0 0 0 12 12h28a12 12 0 0 0 12-12v-8zM6 12a6 6 0 0 1 6-6h28a6 6 0 0 1 6 6v1H6zm0 6h40v49H6zm40 62a6 6 0 0 1-6 6H12a6 6 0 0 1-6-6v-8h40z" fill="#49b4a7"/><path d="M24.09 57.22a2.59 2.59 0 0 0 3.71 0l10.34-10.56a2.59 2.59 0 0 0-3.7-3.66l-5.9 6V26.59a2.59 2.59 0 0 0-5.19 0v22.46l-5.9-6a2.59 2.59 0 1 0-3.71 3.63l10.35 10.54z" fill="#49b4a7" fill-rule="evenodd"/><circle cx="26" cy="80" r="5" fill="#49b4a7"/></svg>