<?xml version="1.0" encoding="iso-8859-1"?>
<!-- Generator: Adobe Illustrator 19.0.0, SVG Export Plug-In . SVG Version: 6.00 Build 0)  -->
<svg version="1.1" id="Capa_1" xmlns="http://www.w3.org/2000/svg" xmlns:xlink="http://www.w3.org/1999/xlink" x="0px" y="0px"
	 viewBox="0 0 512 512" style="enable-background:new 0 0 512 512;" xml:space="preserve">
<g>
	<g>
		<path d="M436,30H219.916C200.247,11.106,169.478,0,136,0c-26.969,0-52.525,7.136-71.96,20.092C42.734,34.296,31,53.796,31,75
			c0,21.203,11.734,40.703,33.04,54.907C83.475,142.864,109.031,150,136,150c33.478,0,64.247-11.106,83.916-30H436
			c24.813,0,45-20.187,45-45S460.813,30,436,30z M436,90H213.518c-4.331,0-8.451,1.872-11.3,5.135
			C188.828,110.472,163.455,120,136,120c-40.654,0-75-20.607-75-45s34.346-45,75-45c27.455,0,52.828,9.528,66.218,24.865
			c2.849,3.263,6.969,5.135,11.3,5.135H436c8.271,0,15,6.729,15,15S444.271,90,436,90z"/>
	</g>
</g>
<g>
	<g>
		<path d="M482,273.58V256c0-24.813-20.187-45-45-45H75c-24.813,0-45,20.187-45,45v17.58C12.541,279.772,0,296.445,0,316v30
			c0,24.755,20.094,44.902,44.827,44.996l11.644,82.368C59.618,495.39,78.769,512,101.019,512h309.962
			c22.25,0,41.401-16.61,44.551-38.658l11.64-82.347C491.906,390.902,512,370.755,512,346v-30
			C512,296.445,499.459,279.772,482,273.58z M60,256c0-8.271,6.729-15,15-15h362c8.271,0,15,6.729,15,15v15H316
			c-3.979,0-7.794,1.581-10.606,4.394L279.787,301h-47.574l-25.607-25.606C203.793,272.581,199.978,271,196,271H60V256z
			 M425.83,469.122c-1.049,7.341-7.433,12.878-14.849,12.878H101.019c-7.417,0-13.801-5.537-14.846-12.857L75.127,391h361.746
			L425.83,469.122z M482,346c0,8.271-6.729,15-15,15H45c-8.271,0-15-6.729-15-15v-30c0-8.271,6.729-15,15-15h144.787l25.607,25.606
			C218.207,329.419,222.022,331,226,331h60c3.979,0,7.794-1.581,10.606-4.394L322.213,301H467c8.271,0,15,6.729,15,15V346z"/>
	</g>
</g>
<g>
</g>
<g>
</g>
<g>
</g>
<g>
</g>
<g>
</g>
<g>
</g>
<g>
</g>
<g>
</g>
<g>
</g>
<g>
</g>
<g>
</g>
<g>
</g>
<g>
</g>
<g>
</g>
<g>
</g>
</svg>
