<svg xmlns="http://www.w3.org/2000/svg" viewBox="0 0 745 660"><defs><style>.cls-1{fill:#045699;}</style></defs><title>steps03_final-04</title><g id="enjoy"><path class="cls-1" d="M492.53,207.47H378.76c-10.38-10-26.54-15.81-44.17-15.81-14.21,0-27.66,3.76-37.9,10.59-11.22,7.45-17.42,17.76-17.42,28.91s6.2,21.46,17.42,28.91c10.24,6.83,23.69,10.59,37.9,10.59,17.63,0,33.86-5.85,44.17-15.81H492.53a23.69,23.69,0,1,0,0-47.38Zm0,31.63H375.42a7.72,7.72,0,0,0-5.93,2.72c-7,8.08-20.41,13.1-34.83,13.1-21.39,0-39.5-10.87-39.5-23.69s18.11-23.69,39.5-23.69c14.42,0,27.8,5,34.83,13.1a7.94,7.94,0,0,0,5.93,2.72H492.53a7.87,7.87,0,1,1,0,15.74Z"/><path class="cls-1" d="M516.78,335.73v-9.26a23.71,23.71,0,0,0-23.69-23.69H302.47a23.71,23.71,0,0,0-23.69,23.69v9.26A23.8,23.8,0,0,0,263,358.1v15.81a23.74,23.74,0,0,0,23.62,23.69l6.13,43.34a23.88,23.88,0,0,0,23.48,20.34H479.36a23.88,23.88,0,0,0,23.48-20.34L509,397.6a23.74,23.74,0,0,0,23.62-23.69V358.1A23.8,23.8,0,0,0,516.78,335.73ZM294.6,326.47a7.86,7.86,0,0,1,7.87-7.87H493.09a7.86,7.86,0,0,1,7.87,7.87v7.87H429.34a7.91,7.91,0,0,0-5.57,2.3l-13.52,13.52H385.17l-13.52-13.52a7.91,7.91,0,0,0-5.57-2.3H294.6ZM487.17,438.71a7.93,7.93,0,0,1-7.81,6.75H316.2a7.94,7.94,0,0,1-7.81-6.75l-5.78-41.18H493.09Zm29.61-64.87a7.88,7.88,0,0,1-7.88,7.88H286.66a7.88,7.88,0,0,1-7.88-7.88V358a7.87,7.87,0,0,1,7.88-7.87h76.22l13.51,13.51A7.91,7.91,0,0,0,382,366h31.56a7.87,7.87,0,0,0,5.57-2.3l13.52-13.51h76.21a7.87,7.87,0,0,1,7.88,7.87v15.81Z"/><path class="cls-1" d="M563.67,126.93a13.32,13.32,0,0,0,15.25-11.14l5-31.43a16.9,16.9,0,0,1,3.83-2c4.18-1.53,6.34-3.48,7.39-10.24,1.67-10.66-1.33-19-9-24.87-5.85-4.46-14.28-7.38-26.68-9.34l-30.31-4.73c-12.33-1.95-21.32-1.68-28.22.69-9.05,3.21-14.49,10.25-16.16,20.9-1.05,6.76.42,9.27,3.9,12a15.08,15.08,0,0,1,3.07,3l-4.95,31.42a13.33,13.33,0,0,0,11.15,15.26Zm-64.52-17.62a6,6,0,0,1-4.95-6.83l5.16-32.89A3.69,3.69,0,0,0,498.8,67a21.94,21.94,0,0,0-5.5-5.92A5.15,5.15,0,0,1,492,59.91a9.85,9.85,0,0,1,.14-3.83c2.3-14.63,12.68-19.09,35.88-15.47s31.77,11.08,29.47,25.71a9.57,9.57,0,0,1-1,3.69,4.7,4.7,0,0,1-1.6.77,22.81,22.81,0,0,0-7,4,3.68,3.68,0,0,0-1.32,2.3l-5.16,32.88a6,6,0,0,1-6.83,4.95Zm87.58-34.49a4.68,4.68,0,0,1-1.61.77,22.57,22.57,0,0,0-7,4,3.66,3.66,0,0,0-1.33,2.3l-5.15,32.88a6,6,0,0,1-6.83,5l-18.46-2.86a13.14,13.14,0,0,0,2.3-5.64l4.94-31.42a16.3,16.3,0,0,1,3.83-2c4.19-1.54,6.34-3.49,7.39-10.25,1.39-9-.56-16.37-5.78-21.94,22.64,3.69,31,11.08,28.7,25.57A9.65,9.65,0,0,1,586.73,74.82Z"/><path class="cls-1" d="M528.76,53a3.75,3.75,0,0,0-5.22-.83l-14,10.24a3.75,3.75,0,0,0-.83,5.22,3.59,3.59,0,0,0,2.43,1.47,3.75,3.75,0,0,0,2.79-.7l14-10.24A3.68,3.68,0,0,0,528.76,53Z"/><path class="cls-1" d="M534.75,60.12l-14,10.24a3.78,3.78,0,0,0-.84,5.23,3.66,3.66,0,0,0,2.44,1.46,3.75,3.75,0,0,0,2.79-.7l14-10.24a3.76,3.76,0,0,0,.84-5.22A3.83,3.83,0,0,0,534.75,60.12Z"/><path class="cls-1" d="M160.83,267.88c2.72-11.78.49-21.95-8.91-29.47-8.23-6.55-20.84-10.11-32.12-12.68s-24.11-4.95-34.42-2.58C73.61,225.8,67.2,234,64.48,245.72l-2,8.5,4.18,1L60.16,264l2.16,1.75a18.28,18.28,0,0,1,2.79,2.85L63,278.12l-5.65-1.33-.62,2.86A20.45,20.45,0,0,0,72.07,304l56.71,13A20.37,20.37,0,0,0,153.1,301.8l.63-2.85-5.65-1.33,2.23-9.75a15.7,15.7,0,0,1,3.28-1l3.06-.63-1.88-10.87,4.25,1ZM130,311.35l-56.71-13A14.73,14.73,0,0,1,61.9,283.76l84.58,19.44A14.42,14.42,0,0,1,130,311.35ZM144.67,284a4.8,4.8,0,0,1-5.64-2.16,10,10,0,0,0-7.11-6.13,9.77,9.77,0,0,0-9.06,2.44,4.12,4.12,0,0,1-6.62-1.54,9.94,9.94,0,0,0-7-6.13,9.71,9.71,0,0,0-9,2.44,4.11,4.11,0,0,1-6.62-1.53,9.89,9.89,0,0,0-7-6.13,9.72,9.72,0,0,0-9,2.44,4.32,4.32,0,0,1-6.13-.42c-1.26-1.46-2.3-2.86-3.56-4.25l4.81-6.55,75.73,17.42,1.4,7.87C148.08,282.51,146.48,283.27,144.67,284Zm-.84,6.06-1.46,6.27-73.85-17h0l1.39-6A10.05,10.05,0,0,0,81.62,272a3.79,3.79,0,0,1,3.69-1,4.24,4.24,0,0,1,2.93,2.51,9.91,9.91,0,0,0,16,3.69,3.82,3.82,0,0,1,3.69-1,4.2,4.2,0,0,1,2.93,2.5,9.92,9.92,0,0,0,16,3.7,4,4,0,0,1,3.84-1,4.18,4.18,0,0,1,3,2.58C135.06,287.73,139.44,290.38,143.83,290.1Zm10.73-20.69L69.43,249.83l.62-2.86c2.37-10.45,7.67-16.23,16.51-18.25,9.13-2.09,21.25.14,31.84,2.58s22.44,5.71,29.82,11.56c7.11,5.65,9.34,13.17,6.9,23.62Z"/><rect class="cls-1" x="88.48" y="243.05" width="5.78" height="5.78" transform="translate(-168.79 279.88) rotate(-77.05)"/><rect class="cls-1" x="111.04" y="248.26" width="5.78" height="5.78" transform="translate(-156.37 305.9) rotate(-77.05)"/><rect class="cls-1" x="133.67" y="253.42" width="5.78" height="5.78" transform="translate(-143.83 331.96) rotate(-77.05)"/><rect class="cls-1" x="125" y="239.54" width="5.78" height="5.78" transform="translate(-137.03 312.74) rotate(-77.05)"/><rect class="cls-1" x="102.38" y="234.31" width="5.78" height="5.78" transform="translate(-149.49 286.64) rotate(-77.05)"/><path class="cls-1" d="M175.32,579a6.84,6.84,0,1,0,3.77,8.92A6.91,6.91,0,0,0,175.32,579Zm-3.48,8.43a2.3,2.3,0,1,1,3-1.25A2.28,2.28,0,0,1,171.84,587.45Z"/><path class="cls-1" d="M284.85,570a11.26,11.26,0,0,0-3.77-6.41,1.28,1.28,0,0,1-.48-1.19,11.05,11.05,0,0,0-2-7.17A11.44,11.44,0,0,0,266,550.67a11.26,11.26,0,0,0-7.52,7.1,8.74,8.74,0,0,1-4.74,5.37l-18.32,7.66-2.37-.9a14.65,14.65,0,0,0-11.15.07c-11.49,4.8-24.38,5.36-37.27,1.67A35.19,35.19,0,0,0,161.39,573c-16.86,7.18-25.57,27-19.3,44.17A34.92,34.92,0,0,0,161,637.34c.28.14.49.21.77.34a35,35,0,0,0,42.78-13.51,64,64,0,0,1,29.81-24.39,12.23,12.23,0,0,0,2.51-1.39L240.4,596l-6.48-2.65a9.2,9.2,0,0,0,2.37-.62l25.29-10.59a8.5,8.5,0,0,1,7.1.42,11.39,11.39,0,0,0,10.38-.35A11.56,11.56,0,0,0,284.85,570Zm-84.1,51.69a30.43,30.43,0,0,1-54.27-6,30.47,30.47,0,0,1,37-39.64c13.86,4,27.79,3.34,40.27-1.88a10.67,10.67,0,0,1,4.45-.77l-10,12.33,8.43.56L225,590.38l-1.46,3.55,6.61,2.72A67.33,67.33,0,0,0,200.75,621.66ZM277,578.19a6.76,6.76,0,0,1-6.2.21,13,13,0,0,0-10.8-.49L234.68,588.5a5.3,5.3,0,0,1-4,.07l2.65-6.41-6-.42,3.2-4,25.08-10.45a13.17,13.17,0,0,0,7.25-8,6.74,6.74,0,0,1,4.53-4.25,6.87,6.87,0,0,1,7.52,2.71,6.61,6.61,0,0,1,1.12,3.77,12,12,0,0,0-7,1,2.3,2.3,0,0,0-1,3.07,2.27,2.27,0,0,0,1.18,1.11,2.51,2.51,0,0,0,1.88-.07,7.11,7.11,0,0,1,5.71-.21,2.07,2.07,0,0,0,.91.14c.14.14.28.35.42.42a6.38,6.38,0,0,1,2.23,3.83A7.05,7.05,0,0,1,277,578.19Z"/><path class="cls-1" d="M200.2,612.05a2.25,2.25,0,0,0-3.14.69,27.74,27.74,0,0,1-4.74,5.58,2.3,2.3,0,0,0-.14,3.2,1.78,1.78,0,0,0,.84.56,2.27,2.27,0,0,0,2.44-.42,34.59,34.59,0,0,0,5.5-6.48A2.42,2.42,0,0,0,200.2,612.05Z"/><path class="cls-1" d="M186.4,622.5a32.8,32.8,0,0,1-22.36,3,2.25,2.25,0,0,0-2.72,1.74,2.31,2.31,0,0,0,1.32,2.65c.14.07.21.07.35.14a37.4,37.4,0,0,0,25.57-3.41,2.23,2.23,0,0,0,.91-3.07A2.15,2.15,0,0,0,186.4,622.5Z"/><path class="cls-1" d="M664.76,463.16l-1.19-3.83-78.86,24,1.18,3.83,11.57-3.49a16.3,16.3,0,0,1,.69,4L587.07,491l1.19,3.83,9.2-2.79-.63,1.89a18.69,18.69,0,0,0,7,23.06,14.23,14.23,0,0,1,6.28,8.22,13.19,13.19,0,0,1,.27,7.52c-.69.63-1.39,1.33-2.09,2A29.1,29.1,0,0,0,573.49,556l-4,1.26a2,2,0,0,0-1.33,2.5c.07.14.14.35.21.49l20.76,33.65a2.13,2.13,0,0,0,1.26.91l10.24,2.58,1.39,4.66a2,2,0,0,0,2.51,1.33l73.09-22.23a2,2,0,0,0,1.32-2.51L677.51,574l7.1-7.88a1.79,1.79,0,0,0,.49-1.39l-1.46-39.57a2.07,2.07,0,0,0-2.09-1.95c-.21,0-.35.07-.49.07l-2.72.83a29,29,0,0,0-34.55-3.27,19,19,0,0,0-.84-5.58A18.08,18.08,0,0,0,635.22,505a14.83,14.83,0,0,1-5.65-18.53,28.46,28.46,0,0,0,1.33-4.6l36.36-11.08L666.08,467l-35,10.66a26.48,26.48,0,0,0-.77-4l34.42-10.52ZM610.9,479.53l5.78-1.74a15.86,15.86,0,0,1,.7,4l-5.64,1.74A19.22,19.22,0,0,0,610.9,479.53Zm5.78,6.62c-.2.63-.41,1.26-.62,1.88a18.69,18.69,0,0,0,7,23.06,14.2,14.2,0,0,1,6.27,8.22,13.1,13.1,0,0,1,.56,6.14,30.06,30.06,0,0,0-5.5.48,19.2,19.2,0,0,0-.84-4.87,18.05,18.05,0,0,0-7.73-10.24,14.85,14.85,0,0,1-5.65-18.54,28.17,28.17,0,0,0,1.33-4.6C611.53,487.75,616.68,486.15,616.68,486.15Zm-15.39-3.69,5.78-1.74a15.78,15.78,0,0,1,.7,4l-5.65,1.74A19.07,19.07,0,0,0,601.29,482.46Zm4.94,31.35a14.81,14.81,0,0,1-5.64-18.53,27.43,27.43,0,0,0,1.32-4.6l5.16-1.6-.63,1.88a18.7,18.7,0,0,0,7,23.06,15.15,15.15,0,0,1,7,13,30.86,30.86,0,0,0-5.58,2.51A18.43,18.43,0,0,0,614,524,18.86,18.86,0,0,0,606.23,513.81Zm16.1,16.86a25.32,25.32,0,0,1,12-.63c-.56.91-1.11,1.82-1.6,2.79a22,22,0,0,0-9.55.7,21.17,21.17,0,0,0-7.59,4.11c-1-.49-1.95-1-3-1.4A25.16,25.16,0,0,1,622.33,530.67Zm8.85,6c-.21.7-.42,1.33-.63,2l-9.34,2.86c-.62-.56-1.32-1.11-2-1.67A18.71,18.71,0,0,1,631.18,536.66Zm-36.79,2.51a25.15,25.15,0,0,1,22.15,3.76l-3.76,1.12a22,22,0,0,0-30.09,7.87c-.28.49-.56,1-.84,1.53l-3.76,1.12A25.58,25.58,0,0,1,594.39,539.17Zm12.54,6.76-19.16,5.85A17.82,17.82,0,0,1,606.93,545.93Zm72.74-18,1.39,36-7.32,8.09a2,2,0,0,0-.41,2l1.18,3.83L605.26,599l-1.19-3.83a2.1,2.1,0,0,0-1.46-1.4L592,591.08l-18.95-30.73Zm-34.84,6.41a17.93,17.93,0,0,1,19.23-5.85Zm6.62-12.54h0a25.09,25.09,0,0,1,22.15,3.77l-3.76,1.11a22.05,22.05,0,0,0-30.16,7.87c-.28.49-.56,1-.84,1.61l-3.76,1.11A25.47,25.47,0,0,1,651.45,521.82Zm-25.78-36.64a18.67,18.67,0,0,0,7,23.06,14.25,14.25,0,0,1,6.27,8.22,13.63,13.63,0,0,1,.21,7.8,31.28,31.28,0,0,0-2.23,2.23,21.68,21.68,0,0,0-3.07-.63,18,18,0,0,0-.69-7.66A18.14,18.14,0,0,0,625.46,508a14.81,14.81,0,0,1-5.64-18.53,28.7,28.7,0,0,0,1.32-4.6l5.16-1.6C626.16,483.85,625.88,484.55,625.67,485.18Zm1.33-6.34-5.65,1.74a27.5,27.5,0,0,0-.76-4l5.78-1.74A18.68,18.68,0,0,1,627,478.84Z"/></g></svg>