<svg height="512pt" viewBox="-126 0 512 512" width="512pt" xmlns="http://www.w3.org/2000/svg"><path d="m70 180c5.519531 0 10-4.480469 10-10s-4.480469-10-10-10-10 4.480469-10 10 4.480469 10 10 10zm0 0"/><path d="m110 180h80c5.523438 0 10-4.476562 10-10s-4.476562-10-10-10h-80c-5.523438 0-10 4.476562-10 10s4.476562 10 10 10zm0 0"/><path d="m0 130v312c0 13.738281 9.289062 25.34375 21.910156 28.882812l4.597656 18.398438c3.351563 13.375 15.324219 22.71875 29.109376 22.71875h148.761718c13.785156 0 25.757813-9.34375 29.113282-22.726562l4.59375-18.390626c12.625-3.539062 21.914062-15.144531 21.914062-28.882812v-312c0-14.292969-10.050781-26.277344-23.457031-29.273438l-10.363281-20.726562h3.820312c5.523438 0 10-4.476562 10-10s-4.476562-10-10-10h-68.195312l3.128906-18.75c3.640625-21.621094-13.128906-41.25-34.933594-41.25-21.894531 0-38.527344 19.671875-34.933594 41.234375l3.128906 18.765625h-68.195312c-5.523438 0-10 4.476562-10 10s4.476562 10 10 10h3.820312l-10.363281 20.726562c-13.40625 2.996094-23.457031 14.980469-23.457031 29.273438zm214.089844 354.417969c-1.117188 4.464843-5.109375 7.582031-9.710938 7.582031h-148.757812c-4.601563 0-8.59375-3.117188-9.710938-7.574219l-3.101562-12.425781h174.386718zm25.910156-42.417969c0 5.515625-4.484375 10-10 10h-200c-5.515625 0-10-4.484375-10-10v-86h47.550781c15.136719 18.878906 38.105469 30 62.449219 30s47.3125-11.121094 62.449219-30h47.550781zm0-106h-52.550781c-3.269531 0-6.332031 1.597656-8.199219 4.277344-11.238281 16.105468-29.648438 25.722656-49.25 25.722656s-38.011719-9.617188-49.25-25.722656c-1.871094-2.679688-4.933594-4.277344-8.199219-4.277344h-52.550781v-60h52.550781c3.269531 0 6.332031-1.597656 8.199219-4.277344 11.238281-16.105468 29.648438-25.722656 49.25-25.722656s38.011719 9.617188 49.25 25.722656c1.867188 2.679688 4.933594 4.277344 8.199219 4.277344h52.550781zm-110-316c9.484375 0 16.796875 8.507812 15.207031 17.945312l-3.679687 22.054688h-23.054688l-3.679687-22.054688c-1.5625-9.382812 5.675781-17.945312 15.207031-17.945312zm-73.820312 60h147.640624l10 20h-167.640624zm173.820312 40c5.515625 0 10 4.484375 10 10v126h-47.550781c-15.136719-18.878906-38.105469-30-62.449219-30s-47.3125 11.121094-62.449219 30h-47.550781v-126c0-5.515625 4.484375-10 10-10zm0 0"/></svg>