<?xml version="1.0" encoding="utf-8"?>
<!-- Generator: Adobe Illustrator 22.0.0, SVG Export Plug-In . SVG Version: 6.00 Build 0)  -->
<svg version="1.1" id="圖層_1" xmlns="http://www.w3.org/2000/svg" xmlns:xlink="http://www.w3.org/1999/xlink" x="0px" y="0px"
	 viewBox="0 0 1478 2461.1" style="enable-background:new 0 0 1478 2461.1;" xml:space="preserve">
<style type="text/css">
	.st0{fill:#EF767A;}
	.st1{fill:#EEB868;}
	.st2{fill:#49DCB1;}
	.st3{fill:#045699;}
</style>
<g id="圖層_2_1_">
	<circle class="st0" cx="405.7" cy="895.5" r="53.1"/>
	<circle class="st0" cx="252.5" cy="1500" r="74.8"/>
	<circle class="st0" cx="537.5" cy="434.8" r="97.8"/>
	<circle class="st0" cx="223.9" cy="437.1" r="105.4"/>
	<rect x="92.4" y="542.5" class="st1" width="397" height="25.7"/>
	<rect x="159" y="1026.8" class="st1" width="272.7" height="107.3"/>
	<rect x="437.9" y="1890.8" class="st1" width="330.9" height="193.8"/>
	<rect x="35" y="97.6" class="st2" width="57.3" height="145"/>
	<rect x="522.6" y="916.2" class="st2" width="148.1" height="46.8"/>
	<g>
		<g>
			<path class="st3" d="M431.7,866.1c-28.5,0-51.5,23.1-51.5,51.5c0,7.7,1.7,15,4.7,21.5l46.8,91.9l46.8-91.9
				c3-6.5,4.7-13.9,4.7-21.5C483.3,889.2,460.2,866.1,431.7,866.1z M431.7,948.6c-17.1,0-30.9-13.9-30.9-30.9s13.9-30.9,30.9-30.9
				c17.1,0,30.9,13.9,30.9,30.9S448.8,948.6,431.7,948.6z M447.1,1046.2l18.8,37.5l-47.6,23.8l-15.9-79.8l2.7-2.7l0.3-0.3l-9.8-19.3
				l-5,5l-61.9-41.2l-61.9,41.2l-41.2-41.2l-61.9,123.7l82.5,41.2l82.5-41.2l82.5,41.2l82.5-41.2l-34.8-69.6L447.1,1046.2z
				 M238.9,1107.5l-47.6-23.8l39.8-79.7l21,21l2.7,2.7L238.9,1107.5z M318.3,1075l-57.7,28.8l14.9-74.5l2.7-1.8l40.1-26.7V1075z
				 M338.9,1075v-74.2l40.1,26.7l2.6,1.8l14.9,74.5L338.9,1075z"/>
		</g>
	</g>
	<g>
		<g>
			<g>
				<path class="st3" d="M688.7,1704H525.4c-14.9-14.3-38.1-22.7-63.4-22.7c-20.4,0-39.7,5.4-54.4,15.2c-16.1,10.7-25,25.5-25,41.5
					s8.9,30.8,25,41.5c14.7,9.8,34,15.2,54.4,15.2c25.3,0,48.6-8.4,63.4-22.7h163.3c18.8,0,34-15.3,34-34S707.5,1704,688.7,1704z
					 M688.7,1749.4H520.6c-3.3,0-6.4,1.4-8.5,3.9c-10.1,11.6-29.3,18.8-50,18.8c-30.7,0-56.7-15.6-56.7-34s26-34,56.7-34
					c20.7,0,39.9,7.2,50,18.8c2.2,2.5,5.3,3.9,8.5,3.9h168.1c6.3,0,11.3,5.1,11.3,11.3S695,1749.4,688.7,1749.4z"/>
			</g>
		</g>
		<g>
			<g>
				<path class="st3" d="M723.5,1888.1v-13.3c0-18.8-15.3-34-34-34H415.9c-18.8,0-34,15.3-34,34v13.3c-13.2,4.7-22.7,17.3-22.7,32.1
					v22.7c0,18.7,15.2,33.9,33.9,34l8.8,62.2c2.4,16.6,16.9,29.2,33.7,29.2h234.2c16.8,0,31.3-12.6,33.7-29.2l8.8-62.2
					c18.7-0.1,33.9-15.3,33.9-34v-22.7C746.2,1905.4,736.7,1892.8,723.5,1888.1z M404.6,1874.8c0-6.3,5.1-11.3,11.3-11.3h273.6
					c6.3,0,11.3,5.1,11.3,11.3v11.3H598c-3,0-5.9,1.2-8,3.3l-19.4,19.4h-36l-19.4-19.4c-2.1-2.1-5-3.3-8-3.3H404.6V1874.8z
					 M681,2035.9c-0.8,5.5-5.6,9.7-11.2,9.7H435.6c-5.6,0-10.4-4.2-11.2-9.7l-8.3-59.1h273.4L681,2035.9z M723.5,1942.8
					c0,6.3-5.1,11.3-11.3,11.3h-319c-6.3,0-11.3-5.1-11.3-11.3v-22.7c0-6.3,5.1-11.3,11.3-11.3h109.4l19.4,19.4c2.1,2.1,5,3.3,8,3.3
					h45.3c3,0,5.9-1.2,8-3.3l19.4-19.4h109.4c6.3,0,11.3,5.1,11.3,11.3L723.5,1942.8L723.5,1942.8z"/>
			</g>
		</g>
	</g>
	<g>
		<g>
			<path class="st3" d="M790.8,1588.4c10.5,1.6,20.3-5.5,21.9-16l7.1-45.1c2.1-1.5,3.8-2.1,5.5-2.8c6-2.2,9.1-5,10.6-14.7
				c2.4-15.3-1.9-27.3-12.9-35.7c-8.4-6.4-20.5-10.6-38.3-13.4l-43.5-6.8c-17.7-2.8-30.6-2.4-40.5,1c-13,4.6-20.8,14.7-23.2,30
				c-1.5,9.7,0.6,13.3,5.6,17.2c1.4,1.1,2.8,2.2,4.4,4.3l-7.1,45.1c-1.6,10.5,5.5,20.3,16,21.9L790.8,1588.4z M698.2,1563.1
				c-4.6-0.7-7.8-5.1-7.1-9.8l7.4-47.2c0.2-1.3-0.1-2.6-0.8-3.7c-3-4.6-5.9-7-7.9-8.5c-1-0.8-1.7-1.4-1.8-1.7
				c-0.1-0.4-0.4-1.7,0.2-5.5c3.3-21,18.2-27.4,51.5-22.2c33.3,5.2,45.6,15.9,42.3,36.9c-0.6,3.8-1.3,5-1.5,5.3s-1,0.6-2.3,1.1
				c-2.3,0.9-5.9,2.2-10.1,5.7c-1,0.8-1.7,2-1.9,3.3l-7.4,47.2c-0.7,4.6-5.1,7.8-9.8,7.1L698.2,1563.1z M823.9,1513.6
				c-0.2,0.3-1,0.6-2.3,1.1c-2.3,0.9-5.9,2.2-10.1,5.7c-1,0.8-1.7,2-1.9,3.3l-7.4,47.2c-0.7,4.6-5.1,7.8-9.8,7.1l-26.5-4.1
				c1.7-2.3,2.8-5.1,3.3-8.1l7.1-45.1c2.1-1.5,3.8-2.1,5.5-2.8c6-2.2,9.1-5,10.6-14.7c2-13-0.8-23.5-8.3-31.5
				c32.5,5.3,44.5,15.9,41.2,36.7C824.8,1512.1,824.1,1513.2,823.9,1513.6z"/>
			<path class="st3" d="M740.7,1482.3c-1.7-2.4-5.1-2.9-7.5-1.2l-20.1,14.7c-2.4,1.7-2.9,5.1-1.2,7.5c0.9,1.2,2.1,1.9,3.5,2.1
				c1.3,0.2,2.8-0.1,4-1l20.1-14.7C741.9,1488,742.4,1484.7,740.7,1482.3z"/>
			<path class="st3" d="M749.3,1492.5l-20.1,14.7c-2.4,1.7-2.9,5.1-1.2,7.5c0.9,1.2,2.1,1.9,3.5,2.1c1.3,0.2,2.8-0.1,4-1l20.1-14.7
				c2.4-1.7,2.9-5.1,1.2-7.5C755,1491.3,751.7,1490.8,749.3,1492.5z"/>
		</g>
	</g>
	<g>
		<g>
			<g>
				<path class="st3" d="M212.6,1790.7c3.9-16.9,0.7-31.5-12.8-42.3c-11.8-9.4-29.9-14.5-46.1-18.2s-34.6-7.1-49.4-3.7
					c-16.9,3.8-26.1,15.5-30,32.4l-2.8,12.2l6,1.4l-9.4,12.7l3.1,2.5c1.6,1.3,2.8,2.6,4,4.1l-3.1,13.6l-8.1-1.9l-0.9,4.1
					c-3.6,15.6,6.3,31.3,22.1,35l81.4,18.7c15.6,3.6,31.3-6.3,34.9-21.9l0.9-4.1l-8.1-1.9l3.2-14c1.5-0.6,3-1.2,4.7-1.5l4.4-0.9
					l-2.7-15.6l6.1,1.4L212.6,1790.7z M168.4,1853.1L87,1834.4c-9.9-2.3-16.6-11.2-16.4-20.9l121.4,27.9
					C188,1850.3,178.2,1855.4,168.4,1853.1z M189.4,1813.9c-3,1.2-7.1-0.7-8.1-3.1c-1.7-4.4-5.5-7.7-10.2-8.8
					c-4.7-1.1-9.6,0.2-13,3.5c-3,2.8-8,1.7-9.5-2.2c-1.7-4.4-5.4-7.7-10.1-8.8s-9.4,0.2-12.9,3.5c-3,2.8-8,1.7-9.5-2.2
					c-1.7-4.4-5.4-7.7-10.1-8.8c-4.6-1.1-9.4,0.2-12.9,3.5c-2.6,2.4-6.7,1.9-8.8-0.6c-1.8-2.1-3.3-4.1-5.1-6.1l6.9-9.4l108.7,25
					l2,11.3C194.3,1811.7,192,1812.8,189.4,1813.9z M188.2,1822.6l-2.1,9l-106-24.4l0,0l2-8.6c5.3,2.9,12.1,2.4,16.8-2
					c1.4-1.4,3.4-1.9,5.3-1.4c1.9,0.4,3.4,1.8,4.2,3.6c3.6,9.4,15.6,12.2,23,5.3c1.4-1.4,3.4-1.9,5.3-1.4c1.9,0.4,3.4,1.8,4.2,3.6
					c3.6,9.4,15.6,12.2,23,5.3c1.4-1.4,3.4-1.9,5.5-1.4c2,0.5,3.6,1.8,4.3,3.7C175.6,1819.2,181.9,1823,188.2,1822.6z M203.6,1792.9
					l-122.2-28.1l0.9-4.1c3.4-15,11-23.3,23.7-26.2c13.1-3,30.5,0.2,45.7,3.7s32.2,8.2,42.8,16.6c10.2,8.1,13.4,18.9,9.9,33.9
					L203.6,1792.9z"/>
			</g>
		</g>
		<g>
			<g>
				
					<rect x="108.8" y="1755.1" transform="matrix(0.2241 -0.9746 0.9746 0.2241 -1626.8728 1475.0251)" class="st3" width="8.3" height="8.3"/>
			</g>
		</g>
		<g>
			<g>
				
					<rect x="141.1" y="1762.5" transform="matrix(0.2241 -0.9746 0.9746 0.2241 -1609.0464 1512.3723)" class="st3" width="8.3" height="8.3"/>
			</g>
		</g>
		<g>
			<g>
				
					<rect x="173.6" y="1769.9" transform="matrix(0.2241 -0.9746 0.9746 0.2241 -1591.0538 1549.7782)" class="st3" width="8.3" height="8.3"/>
			</g>
		</g>
		<g>
			<g>
				
					<rect x="161.2" y="1750" transform="matrix(0.2241 -0.9746 0.9746 0.2241 -1581.2935 1522.1912)" class="st3" width="8.3" height="8.3"/>
			</g>
		</g>
		<g>
			<g>
				
					<rect x="128.7" y="1742.5" transform="matrix(0.2241 -0.9746 0.9746 0.2241 -1599.1736 1484.7317)" class="st3" width="8.3" height="8.3"/>
			</g>
		</g>
	</g>
	<g>
		<g>
			<path class="st3" d="M233.4,2237.3c-5-2.1-10.8,0.3-12.8,5.4c-2.1,5,0.3,10.8,5.4,12.8c5,2.1,10.8-0.3,12.8-5.4
				C240.8,2245.1,238.4,2239.4,233.4,2237.3z M228.4,2249.4c-1.7-0.7-2.5-2.6-1.8-4.3c0.7-1.7,2.6-2.5,4.3-1.8
				c1.7,0.7,2.5,2.6,1.8,4.3C232,2249.3,230.1,2250.1,228.4,2249.4z"/>
			<path class="st3" d="M390.6,2224.3c-0.7-3.6-2.6-6.8-5.4-9.2c-0.5-0.4-0.8-1-0.7-1.7c0.3-3.7-0.7-7.2-2.8-10.3
				c-3.9-5.8-11.4-8.5-18.1-6.5c-5.1,1.5-9,5.2-10.8,10.2c-1.3,3.7-3.7,6.4-6.8,7.7l-26.3,11l-3.4-1.3c-5.2-2.1-10.9-2-16,0.1
				c-16.5,6.9-35,7.7-53.5,2.4c-11-3.2-22.8-2.4-33.4,2c-24.2,10.3-36.7,38.7-27.7,63.4c4.8,13.1,14.4,23.3,27.1,28.9
				c0.4,0.2,0.7,0.3,1.1,0.5c12.4,5.1,26,5.1,38.4-0.1c9.5-4,17.5-10.6,23-19.3c9.8-15.3,24.6-27.5,42.8-35c1.2-0.5,2.3-1.1,3.6-2
				l5.1-3.4l-9.3-3.8c1.2-0.2,2.3-0.4,3.4-0.9l36.3-15.2c3-1.3,6.6-1.1,10.2,0.6c4.8,2.2,10.2,2.1,14.9-0.5
				C388.6,2238.4,392,2231.2,390.6,2224.3z M269.9,2298.5c-4.8,7.5-11.7,13.3-20,16.8c-11.1,4.6-23.2,4.5-34.4-0.3
				c-11-4.8-19.4-13.8-23.5-25.1c-7.8-21.5,3-46.2,24.1-55.1c9.3-3.9,19.3-4.5,29-1.8c19.9,5.7,39.9,4.8,57.8-2.7
				c2-0.8,4.2-1.2,6.4-1.1l-14.3,17.7l12.1,0.8l-2.4,5.9l-2.1,5.1l9.5,3.9C294.2,2270.7,279.7,2283.1,269.9,2298.5z M379.3,2236.1
				c-2.8,1.5-6.1,1.7-8.9,0.3c-5.3-2.5-10.8-2.7-15.5-0.7l-36.3,15.2c-1.8,0.8-3.9,0.8-5.7,0.1l3.8-9.2l-8.6-0.6l4.6-5.7l36-15
				c4.8-2,8.5-6.1,10.4-11.5c1.1-3,3.4-5.2,6.5-6.1c4-1.2,8.5,0.5,10.8,3.9c1.1,1.6,1.6,3.5,1.6,5.4c-3.4-0.5-6.9,0-10,1.5
				c-1.6,0.8-2.3,2.7-1.5,4.4c0.4,0.8,1,1.3,1.7,1.6c0.8,0.3,1.8,0.3,2.7-0.1c2.6-1.2,5.6-1.4,8.2-0.3c0.4,0.2,0.9,0.2,1.3,0.2
				c0.2,0.2,0.4,0.5,0.6,0.6c1.7,1.4,2.8,3.3,3.2,5.5C385,2229.7,382.9,2234.1,379.3,2236.1z"/>
			<path class="st3" d="M269.1,2284.7c-1.6-1-3.6-0.5-4.5,1c-1.9,2.9-4.1,5.6-6.8,8c-1.3,1.2-1.4,3.3-0.2,4.6
				c0.3,0.4,0.7,0.6,1.2,0.8c1.1,0.5,2.5,0.3,3.5-0.6c3-2.8,5.7-5.9,7.9-9.3C271,2287.7,270.6,2285.7,269.1,2284.7z"/>
			<path class="st3" d="M249.3,2299.7c-9.7,5.2-21.4,6.7-32.1,4.3c-1.8-0.4-3.5,0.7-3.9,2.5c-0.4,1.6,0.5,3.2,1.9,3.8
				c0.2,0.1,0.3,0.1,0.5,0.2c12.3,2.8,25.6,1,36.7-4.9c1.6-0.9,2.2-2.8,1.3-4.4C252.9,2299.4,250.9,2298.8,249.3,2299.7z"/>
		</g>
	</g>
	<g>
		<g>
			<g>
				<path class="st3" d="M935.9,2071l-1.7-5.5L821,2100l1.7,5.5l16.6-5c0.6,1.9,0.9,3.8,1,5.7l-15.9,4.8l1.7,5.5l13.2-4
					c-0.3,0.9-0.6,1.8-0.9,2.7c-2.6,5.8-2.9,12.4-1,18.4c1.8,6.1,5.7,11.3,11.1,14.7c4.4,2.7,7.6,6.9,9,11.8
					c1.2,3.5,1.3,7.2,0.4,10.8c-1,0.9-2,1.9-3,2.9c-22.2-5.2-44.4,8.4-50,30.5l-5.8,1.8c-1.5,0.5-2.4,2.1-1.9,3.6
					c0.1,0.2,0.2,0.5,0.3,0.7l29.8,48.3c0.4,0.6,1,1.1,1.8,1.3l14.7,3.7l2,6.7c0.5,1.5,2.1,2.4,3.6,1.9l104.9-31.9
					c1.5-0.5,2.4-2.1,1.9-3.6l-2-6.7l10.2-11.3c0.5-0.6,0.8-1.3,0.7-2L963,2160c-0.1-1.6-1.4-2.8-3-2.8c-0.3,0-0.5,0.1-0.7,0.1
					l-3.9,1.2c-13.7-12.4-33.9-14.3-49.6-4.7c0-2.7-0.4-5.4-1.2-8c-1.8-6.1-5.7-11.3-11.1-14.7c-4.4-2.7-7.6-6.9-9-11.8
					c-1.6-4.9-1.2-10.2,0.9-14.8c0.8-2.2,1.5-4.4,1.9-6.6l52.2-15.9l-1.7-5.5l-50.2,15.3c-0.2-1.9-0.6-3.8-1.1-5.7L935.9,2071
					L935.9,2071z M858.6,2094.5l8.3-2.5c0.6,1.9,0.9,3.8,1,5.7l-8.1,2.5C859.6,2098.3,859.2,2096.3,858.6,2094.5z M866.9,2104
					c-0.3,0.9-0.6,1.8-0.9,2.7c-2.6,5.8-2.9,12.4-1,18.4c1.8,6.1,5.7,11.3,11.1,14.7c4.4,2.7,7.6,6.9,9,11.8c1,2.8,1.2,5.9,0.8,8.8
					c-2.6,0-5.3,0.2-7.9,0.7c-0.1-2.4-0.5-4.7-1.2-7c-1.8-6.1-5.7-11.3-11.1-14.7c-4.4-2.7-7.6-6.9-9-11.8
					c-1.6-4.9-1.2-10.2,0.9-14.8c0.8-2.2,1.5-4.4,1.9-6.6C859.5,2106.3,866.9,2104,866.9,2104z M844.8,2098.7l8.3-2.5
					c0.6,1.9,0.9,3.8,1,5.7l-8.1,2.5C845.8,2102.5,845.4,2100.5,844.8,2098.7z M851.9,2143.7c-4.4-2.7-7.6-6.9-9-11.8
					c-1.6-4.9-1.2-10.2,0.9-14.8c0.8-2.2,1.5-4.4,1.9-6.6l7.4-2.3c-0.3,0.9-0.6,1.8-0.9,2.7c-2.6,5.8-2.9,12.4-1,18.4
					c1.8,6.1,5.7,11.3,11.1,14.7c6.3,4,10.1,11.1,10,18.6c-2.8,0.9-5.5,2.2-8,3.6c0-2.7-0.4-5.4-1.2-7.9
					C861.2,2152.4,857.3,2147.1,851.9,2143.7z M875,2167.9c5.6-1.7,11.5-2,17.3-0.9c-0.8,1.3-1.6,2.6-2.3,4c-4.6-0.7-9.3-0.3-13.7,1
					c-4,1.2-7.7,3.2-10.9,5.9c-1.4-0.7-2.8-1.4-4.3-2C865.1,2172.2,869.8,2169.5,875,2167.9z M887.7,2176.5c-0.3,1-0.6,1.9-0.9,2.9
					l-13.4,4.1c-0.9-0.8-1.9-1.6-2.9-2.4C875.5,2177.7,881.6,2176,887.7,2176.5z M834.9,2180.1c10.9-3.3,22.6-1.3,31.8,5.4l-5.4,1.6
					c-15.1-8.8-34.4-3.7-43.2,11.3c-0.4,0.7-0.8,1.4-1.2,2.2l-5.4,1.6C815.4,2191.7,824.1,2183.5,834.9,2180.1z M852.9,2189.8
					l-27.5,8.4C832,2190,842.9,2186.7,852.9,2189.8z M957.3,2164l2,51.7l-10.5,11.6c-0.7,0.8-0.9,1.8-0.6,2.8l1.7,5.5l-99.4,30.3
					l-1.7-5.5c-0.3-1-1.1-1.7-2.1-2l-15.2-3.8l-27.2-44.1L957.3,2164z M907.3,2173.2c6.6-8.2,17.6-11.5,27.6-8.4L907.3,2173.2z
					 M916.8,2155.2L916.8,2155.2c10.9-3.3,22.7-1.3,31.8,5.4l-5.4,1.6c-15.1-8.8-34.4-3.8-43.3,11.3c-0.4,0.7-0.8,1.5-1.2,2.3
					l-5.4,1.6C897.3,2166.7,906,2158.5,916.8,2155.2z M879.8,2102.6c-2.6,5.8-2.9,12.4-1,18.4c1.8,6.1,5.7,11.3,11.1,14.7
					c4.4,2.7,7.6,6.9,9,11.8c1.2,3.6,1.3,7.5,0.3,11.2c-1.1,1-2.2,2.1-3.2,3.2c-1.4-0.4-2.9-0.7-4.4-0.9c0.5-3.7,0.1-7.4-1-11
					c-1.8-6.1-5.7-11.3-11.1-14.7c-4.4-2.7-7.6-6.9-9-11.8c-1.6-4.9-1.2-10.2,0.9-14.8c0.8-2.2,1.5-4.4,1.9-6.6l7.4-2.3
					C880.5,2100.7,880.1,2101.7,879.8,2102.6z M881.7,2093.5l-8.1,2.5c-0.2-1.9-0.6-3.8-1.1-5.7l8.3-2.5
					C881.3,2089.6,881.6,2091.6,881.7,2093.5z"/>
			</g>
		</g>
	</g>
	<polygon class="st2" points="894.7,1636.4 968.1,1715.8 832.2,1880.3 	"/>
</g>
<g id="Layer_1">
	<g>
		<g>
			<path class="st3" d="M564,342c-9.7,0-19.2,1.3-28.2,3.8l-27.5-71.4l9.9-10.2c4.1-4.2,4-10.9-0.1-15l-21.3-21.3
				c-2-2-4.7-3.1-7.5-3.1H436c-5.9,0-10.7,4.8-10.7,10.7c0,5.9,4.8,10.7,10.7,10.7h48.9l10.8,10.8l-7.4,7.6c-3,3.1-3.7,7.4-2.3,11.2
				v0.1l9.8,25.5l-145.2,18.1v-19.9h32c5.9,0,10.7-4.8,10.7-10.7s-4.8-10.7-10.7-10.7h-64c-5.9,0-10.7,4.8-10.7,10.7
				s4.8,10.7,10.7,10.7h10.7v29.1L314.4,354c-14.7-7.7-31.4-12-49.1-12c-58.8,0-106.7,47.9-106.7,106.7s47.9,106.7,106.7,106.7
				c51.5,0,94.6-36.7,104.5-85.3h14.6c4.4,12.4,16.3,21.3,30.2,21.3c17.6,0,32-14.3,32-32c0-7.4-2.5-14.2-6.7-19.6l68.3-106.3
				l7.7,20c-34.7,17.6-58.6,53.7-58.6,95.2c0,58.8,47.9,106.7,106.7,106.7s106.7-47.8,106.7-106.7C670.7,389.8,622.8,342,564,342z
				 M265.3,534c-47.1,0-85.3-38.3-85.3-85.3s38.3-85.3,85.3-85.3c13.8,0,26.8,3.3,38.3,9.1L256,454c-3,5.1-1.3,11.6,3.8,14.6
				c1.7,1,3.5,1.4,5.4,1.4c0,0,0,0,0.1,0H348C338.5,506.7,305,534,265.3,534z M283.9,448.6l37.5-64.3c17.9,15.7,29.3,38.7,29.3,64.3
				L283.9,448.6L283.9,448.6z M384.5,448.6H372c0-33.5-15.5-63.4-39.7-83l7.7-13.2l50.3,86.2C387.8,441.6,385.8,444.9,384.5,448.6z
				 M414.7,470c-5.9,0-10.7-4.8-10.7-10.7c0-5.9,4.8-10.7,10.7-10.7c5.9,0,10.7,4.8,10.7,10.7C425.3,465.2,420.6,470,414.7,470z
				 M422,428.2c-2.4-0.5-4.8-0.8-7.3-0.8c-2.1,0-4.1,0.2-6,0.6l-51.3-88l132-16.5L422,428.2z M564,534c-47.1,0-85.3-38.3-85.3-85.3
				c0-32.5,18.3-60.7,45-75.2l30.4,79c1.6,4.2,5.7,6.8,10,6.8c1.3,0,2.6-0.3,3.8-0.7c5.5-2.1,8.2-8.3,6.1-13.8l-30.4-79
				c6.6-1.6,13.4-2.5,20.5-2.5c47,0,85.3,38.3,85.3,85.3C649.3,495.7,611.1,534,564,534z"/>
		</g>
	</g>
</g>
</svg>
