<svg viewBox="0 -76 512 512" xmlns="http://www.w3.org/2000/svg"><path d="m480.496094 270c-3.5625-54.453125-26.457032-105.15625-65.398438-144.097656-32.6875-32.6875-73.664062-54.0625-118.1875-62.199219 2.617188-5.699219 4.089844-12.03125 4.089844-18.703125 0-24.8125-20.1875-45-45-45s-45 20.1875-45 45c0 6.671875 1.472656 13.003906 4.085938 18.703125-44.519532 8.136719-85.496094 29.511719-118.183594 62.199219-38.941406 38.941406-61.839844 89.644531-65.398438 144.097656h-31.503906v15c0 20.039062 8.023438 38.914062 22.589844 53.152344 14.410156 14.089844 33.378906 21.847656 53.410156 21.847656h360c20.03125 0 39-7.757812 53.410156-21.847656 14.566406-14.238282 22.589844-33.113282 22.589844-53.152344v-15zm-239.496094-225c0-8.269531 6.730469-15 15-15s15 6.730469 15 15-6.730469 15-15 15-15-6.730469-15-15zm15 45c102.476562 0 186.742188 79.457031 194.429688 180h-388.859376c7.6875-100.542969 91.953126-180 194.429688-180zm180 240h-360c-19.589844 0-36.789062-12.71875-43.265625-30h446.53125c-6.476563 17.28125-23.675781 30-43.265625 30zm0 0"/></svg>