<?xml version="1.0" encoding="utf-8"?>
<!-- Generator: Adobe Illustrator 22.1.0, SVG Export Plug-In . SVG Version: 6.00 Build 0)  -->
<svg version="1.1" id="圖層_1" xmlns="http://www.w3.org/2000/svg" xmlns:xlink="http://www.w3.org/1999/xlink" x="0px" y="0px"
	 viewBox="0 0 512 512" style="enable-background:new 0 0 512 512;" xml:space="preserve">
<style type="text/css">
	.st0{fill:#FFFFFF;}
</style>
<path class="st0" d="M480.5,346c-3.6-54.5-26.5-105.2-65.4-144.1c-32.7-32.7-73.7-54.1-118.2-62.2c2.6-5.7,4.1-12,4.1-18.7
	c0-24.8-20.2-45-45-45s-45,20.2-45,45c0,6.7,1.5,13,4.1,18.7c-44.5,8.1-85.5,29.5-118.2,62.2C58,240.8,35.1,291.5,31.5,346H0v15
	c0,20,8,38.9,22.6,53.2C37,428.2,56,436,76,436h360c20,0,39-7.8,53.4-21.8C504,399.9,512,381,512,361v-15H480.5z M241,121
	c0-8.3,6.7-15,15-15s15,6.7,15,15s-6.7,15-15,15S241,129.3,241,121z M256,166c102.5,0,186.7,79.5,194.4,180H61.6
	C69.3,245.5,153.5,166,256,166z M436,406H76c-19.6,0-36.8-12.7-43.3-30h446.5C472.8,393.3,455.6,406,436,406z"/>
</svg>
