<?xml version="1.0" encoding="iso-8859-1"?>
<!-- Generator: Adobe Illustrator 19.0.0, SVG Export Plug-In . SVG Version: 6.00 Build 0)  -->
<svg version="1.1" id="Capa_1" xmlns="http://www.w3.org/2000/svg" xmlns:xlink="http://www.w3.org/1999/xlink" x="0px" y="0px"
	 viewBox="0 0 512 512" style="enable-background:new 0 0 512 512;" xml:space="preserve">
<g>
	<g>
		<g>
			<path d="M460.947,180.163c-3.591-34.464-32.807-61.423-68.206-61.423H119.259c-35.398,0-64.615,26.959-68.206,61.423
				C21.471,189.682,0,217.456,0,250.161c0,32.566,21.291,60.238,50.679,69.871v13.271c0,33.061,26.896,59.957,59.957,59.957h290.729
				c33.061,0,59.957-26.896,59.957-59.957v-13.271C490.709,310.399,512,282.727,512,250.161
				C512,217.456,490.529,189.682,460.947,180.163z M441.323,323.611h-0.002v9.691c0,22.032-17.925,39.957-39.957,39.957H110.636
				c-22.032,0-39.957-17.925-39.957-39.957v-9.691v-16.493c0-1.197,0.124-2.364,0.343-3.498c1.64-8.507,9.134-14.957,18.113-14.957
				h333.732c8.979,0,16.472,6.45,18.113,14.957c0.219,1.134,0.343,2.301,0.343,3.498V323.611z M460.44,298.951
				c-3.756-17.292-19.172-30.288-37.574-30.288H89.134c-18.401,0-33.818,12.995-37.574,30.288c-18.587-8.4-31.56-27.102-31.56-48.79
				c0-22.005,13.352-40.944,32.376-49.159c6.026-2.602,12.622-4.118,19.544-4.323c0.534-0.016,1.065-0.041,1.603-0.041h244.811
				c5.522,0,10-4.478,10-10c0-5.522-4.478-10-10-10H73.522c-0.555,0-1.103,0.03-1.656,0.042c4.866-21.685,24.26-37.94,47.392-37.94
				H392.74c23.132,0,42.526,16.256,47.392,37.94c-0.552-0.012-1.101-0.042-1.656-0.042h-40.145c-5.522,0-10,4.478-10,10
				c0,5.522,4.478,10,10,10h40.145c0.538,0,1.069,0.025,1.603,0.041c6.921,0.205,13.518,1.721,19.544,4.323
				C478.648,209.217,492,228.156,492,250.161C492,271.849,479.027,290.551,460.44,298.951z"/>
			<path d="M438.552,234.884c-1.249,0-2.413-0.044-3.509-0.126c-7.917-0.588-12.193-3.2-17.433-6.405
				c-2.753-1.684-5.786-3.527-9.434-5.141c-5.492-2.428-12.393-4.328-21.945-4.328c-9.717,0-16.693,1.964-22.231,4.453
				c-3.522,1.583-6.466,3.375-9.148,5.016c-5.966,3.649-10.679,6.531-20.943,6.531c-10.263,0-14.975-2.882-20.939-6.53
				c-2.681-1.64-5.626-3.434-9.148-5.017c-5.537-2.488-12.512-4.453-22.227-4.453c-9.715,0-16.691,1.964-22.229,4.453
				c-3.521,1.583-6.466,3.376-9.147,5.017c-5.966,3.648-10.677,6.53-20.94,6.53c-10.262,0-14.974-2.882-20.938-6.53
				c-2.681-1.64-5.626-3.434-9.148-5.017c-5.537-2.488-12.512-4.453-22.227-4.453c-9.714,0-16.69,1.965-22.226,4.453
				c-3.522,1.583-6.466,3.376-9.148,5.017c-5.965,3.648-10.677,6.53-20.939,6.53c-10.262,0-14.975-2.882-20.939-6.53
				c-6.897-4.219-15.48-9.47-31.376-9.47c-3.521,0-6.611,1.824-8.393,4.574c-1.013,1.564-1.607,3.424-1.607,5.426
				c0,5.522,4.478,10,10,10c10.264,0,14.975,2.882,20.94,6.531c6.896,4.219,15.48,9.469,31.375,9.469s24.479-5.251,31.375-9.47
				c1.192-0.729,2.335-1.426,3.482-2.077c4.589-2.606,9.246-4.453,17.457-4.453s12.868,1.847,17.458,4.453
				c1.146,0.651,2.29,1.348,3.482,2.077c6.896,4.219,15.48,9.47,31.374,9.47c15.895,0,24.479-5.25,31.376-9.47
				c1.193-0.729,2.336-1.426,3.482-2.077c4.589-2.606,9.246-4.453,17.458-4.453c8.211,0,12.868,1.847,17.458,4.453
				c1.146,0.651,2.29,1.348,3.482,2.077c6.896,4.219,15.48,9.47,31.375,9.47c15.896,0,24.48-5.25,31.379-9.469
				c1.193-0.73,2.336-1.427,3.484-2.078c4.59-2.606,9.248-4.453,17.46-4.453c8.212,0,12.87,1.847,17.46,4.453
				c1.147,0.651,2.291,1.348,3.484,2.078c6.898,4.219,15.482,9.469,31.378,9.469c5.522,0,10-4.478,10-10
				C448.557,239.362,444.074,234.884,438.552,234.884z"/>
			<path d="M126.899,339.47c-0.25-0.6-0.56-1.18-0.92-1.729c-0.359-0.54-0.779-1.051-1.239-1.511c-0.46-0.47-0.971-0.88-1.521-1.25
				c-0.54-0.359-1.12-0.67-1.729-0.92c-0.601-0.25-1.23-0.439-1.87-0.569c-1.29-0.261-2.62-0.261-3.91,0
				c-0.641,0.13-1.271,0.319-1.87,0.569s-1.18,0.561-1.72,0.92c-0.551,0.37-1.061,0.78-1.53,1.25c-0.46,0.46-0.87,0.971-1.24,1.511
				c-0.359,0.55-0.67,1.13-0.92,1.729s-0.439,1.23-0.57,1.87c-0.13,0.65-0.189,1.3-0.189,1.96c0,0.65,0.06,1.31,0.189,1.95
				c0.131,0.64,0.32,1.27,0.57,1.87c0.25,0.609,0.561,1.189,0.92,1.729c0.37,0.55,0.78,1.061,1.24,1.521
				c0.47,0.46,0.979,0.88,1.53,1.239c0.54,0.36,1.12,0.67,1.72,0.92c0.6,0.25,1.229,0.44,1.87,0.57c0.649,0.13,1.3,0.19,1.96,0.19
				c0.649,0,1.31-0.061,1.95-0.19c0.64-0.13,1.27-0.32,1.87-0.57c0.609-0.25,1.189-0.56,1.729-0.92
				c0.55-0.359,1.061-0.779,1.521-1.239s0.88-0.971,1.239-1.521c0.36-0.54,0.67-1.12,0.92-1.729c0.25-0.601,0.44-1.23,0.57-1.87
				c0.13-0.641,0.2-1.3,0.2-1.95s-0.07-1.31-0.2-1.96C127.34,340.7,127.149,340.069,126.899,339.47z"/>
			<path d="M220.899,316.51c-0.25-0.61-0.56-1.19-0.92-1.73c-0.359-0.55-0.779-1.06-1.239-1.52c-0.46-0.46-0.971-0.88-1.521-1.24
				c-0.54-0.359-1.12-0.67-1.729-0.92c-0.601-0.25-1.23-0.439-1.87-0.57c-1.29-0.26-2.62-0.26-3.91,0
				c-0.641,0.131-1.271,0.32-1.87,0.57s-1.18,0.561-1.73,0.92c-0.54,0.36-1.05,0.78-1.52,1.24c-0.46,0.46-0.87,0.97-1.24,1.52
				c-0.359,0.54-0.67,1.12-0.92,1.73c-0.25,0.6-0.439,1.23-0.57,1.87c-0.13,0.64-0.189,1.3-0.189,1.95c0,0.649,0.06,1.31,0.189,1.96
				c0.097,0.468,0.238,0.934,0.401,1.394c0.056,0.159,0.105,0.32,0.169,0.477c0.25,0.6,0.561,1.18,0.92,1.72
				c0.37,0.55,0.78,1.06,1.24,1.52c0.47,0.46,0.979,0.88,1.52,1.25c0.551,0.36,1.131,0.67,1.73,0.92s1.229,0.44,1.87,0.57
				c0.649,0.13,1.31,0.19,1.96,0.19c0.649,0,1.31-0.061,1.95-0.19c0.64-0.13,1.27-0.32,1.87-0.57c0.609-0.25,1.189-0.56,1.729-0.92
				c0.55-0.37,1.061-0.79,1.521-1.25c0.46-0.46,0.88-0.97,1.239-1.52c0.36-0.54,0.67-1.12,0.92-1.72
				c0.064-0.157,0.113-0.317,0.17-0.477c0.163-0.46,0.304-0.925,0.401-1.394c0.13-0.65,0.2-1.311,0.2-1.96
				c0-0.65-0.07-1.311-0.2-1.95C221.34,317.741,221.149,317.109,220.899,316.51z"/>
			<path d="M319.02,346.51c-0.25-0.61-0.56-1.19-0.92-1.73c-0.359-0.55-0.78-1.06-1.24-1.52c-2.329-2.32-5.779-3.39-9.029-2.73
				c-0.641,0.131-1.271,0.32-1.87,0.57c-0.601,0.25-1.18,0.561-1.72,0.92c-0.551,0.36-1.061,0.78-1.521,1.24
				c-0.47,0.46-0.88,0.97-1.25,1.52c-0.36,0.54-0.67,1.12-0.92,1.73c-0.25,0.6-0.44,1.23-0.57,1.87c-0.13,0.64-0.189,1.3-0.189,1.95
				c0,0.649,0.06,1.31,0.189,1.96c0.13,0.63,0.32,1.26,0.57,1.87c0.25,0.6,0.56,1.18,0.92,1.72c0.37,0.55,0.78,1.06,1.25,1.52
				c0.46,0.46,0.97,0.88,1.521,1.25c0.54,0.36,1.119,0.67,1.72,0.92c0.6,0.25,1.229,0.44,1.87,0.57c0.649,0.13,1.31,0.19,1.96,0.19
				c2.63,0,5.21-1.061,7.069-2.931c0.46-0.46,0.881-0.97,1.24-1.52c0.36-0.54,0.67-1.12,0.92-1.72c0.25-0.61,0.44-1.24,0.57-1.87
				c0.13-0.65,0.2-1.311,0.2-1.96c0-0.65-0.07-1.311-0.2-1.95C319.46,347.74,319.27,347.109,319.02,346.51z"/>
			<path d="M402.899,327.14c-0.25-0.61-0.56-1.189-0.92-1.729c-0.359-0.551-0.779-1.061-1.239-1.521
				c-0.072-0.072-0.153-0.136-0.228-0.206c-0.401-0.377-0.829-0.73-1.293-1.034c-0.54-0.359-1.12-0.67-1.729-0.92
				c-0.601-0.25-1.23-0.439-1.87-0.569c-1.29-0.261-2.62-0.261-3.91,0c-0.641,0.13-1.26,0.319-1.87,0.569
				c-0.6,0.25-1.18,0.561-1.72,0.92c-0.464,0.304-0.892,0.657-1.293,1.034c-0.074,0.07-0.156,0.134-0.228,0.206
				c-0.46,0.46-0.88,0.97-1.25,1.521c-0.359,0.54-0.67,1.119-0.92,1.729c-0.25,0.601-0.439,1.23-0.57,1.87
				c-0.13,0.64-0.199,1.3-0.199,1.95c0,0.649,0.069,1.31,0.199,1.95c0.131,0.64,0.32,1.27,0.57,1.88c0.25,0.6,0.561,1.18,0.92,1.72
				c0.37,0.55,0.79,1.06,1.25,1.52c1.851,1.86,4.431,2.931,7.07,2.931c0.649,0,1.31-0.07,1.95-0.2c0.64-0.12,1.27-0.32,1.87-0.57
				c0.609-0.25,1.189-0.55,1.729-0.92c0.55-0.359,1.061-0.779,1.521-1.24c0.46-0.46,0.88-0.97,1.239-1.52
				c0.36-0.54,0.67-1.12,0.92-1.72c0.25-0.61,0.44-1.24,0.57-1.88c0.13-0.641,0.2-1.301,0.2-1.95c0-0.65-0.07-1.311-0.2-1.95
				C403.338,328.372,403.149,327.74,402.899,327.14z"/>
			<path d="M349.1,190.46c0.25,0.609,0.561,1.189,0.92,1.729c0.36,0.551,0.78,1.061,1.24,1.521c0.46,0.46,0.97,0.88,1.521,1.24
				c0.539,0.359,1.119,0.67,1.729,0.92c0.6,0.25,1.23,0.439,1.87,0.569c0.64,0.13,1.3,0.2,1.95,0.2c0.649,0,1.31-0.07,1.96-0.2
				c0.63-0.13,1.26-0.319,1.87-0.569c0.6-0.25,1.18-0.561,1.72-0.92c0.55-0.36,1.06-0.78,1.52-1.24c0.46-0.46,0.881-0.97,1.25-1.521
				c0.36-0.54,0.67-1.12,0.92-1.729c0.24-0.601,0.44-1.23,0.57-1.87c0.13-0.64,0.19-1.3,0.19-1.95c0-0.649-0.061-1.31-0.19-1.96
				c-0.13-0.63-0.33-1.26-0.57-1.87c-0.25-0.6-0.56-1.18-0.92-1.72c-0.369-0.55-0.79-1.061-1.25-1.521
				c-2.319-2.329-5.77-3.39-9.02-2.739c-0.64,0.13-1.271,0.319-1.87,0.569c-0.61,0.25-1.19,0.561-1.729,0.92
				c-0.551,0.37-1.061,0.79-1.521,1.25c-0.46,0.46-0.88,0.971-1.24,1.521c-0.359,0.54-0.67,1.12-0.92,1.72
				c-0.25,0.61-0.439,1.24-0.569,1.87c-0.131,0.65-0.2,1.311-0.2,1.96c0,0.65,0.069,1.311,0.2,1.95
				C348.66,189.229,348.85,189.859,349.1,190.46z"/>
		</g>
	</g>
</g>
<g>
</g>
<g>
</g>
<g>
</g>
<g>
</g>
<g>
</g>
<g>
</g>
<g>
</g>
<g>
</g>
<g>
</g>
<g>
</g>
<g>
</g>
<g>
</g>
<g>
</g>
<g>
</g>
<g>
</g>
</svg>
