<svg xmlns="http://www.w3.org/2000/svg" viewBox="0 0 86 88"><title>icon-step-search</title><path d="M63.23 39.34a4 4 0 1 1-2.81-1.17 4 4 0 0 1 2.81 1.17m7.33-7.63a3.48 3.48 0 1 1-6.9-.92c.69-5.21-5.11-7.93-5.36-8a3.48 3.48 0 0 1 2.84-6.35c.44.2 10.8 4.92 9.42 15.32M55 54.73a23.39 23.39 0 1 1 23-23.39 23.23 23.23 0 0 1-23 23.39M55 0a31.4 31.4 0 0 0-24.35 50.61L1.29 80.38a4.473 4.473 0 0 0 6.37 6.28l29.41-29.82a30.54 30.54 0 0 0 18 5.84A31.34 31.34 0 0 0 55 0" fill="#4cb8ab" fill-rule="evenodd"/></svg>