<?xml version="1.0" encoding="iso-8859-1"?>
<!-- Generator: Adobe Illustrator 19.0.0, SVG Export Plug-In . SVG Version: 6.00 Build 0)  -->
<svg version="1.1" id="Capa_1" xmlns="http://www.w3.org/2000/svg" xmlns:xlink="http://www.w3.org/1999/xlink" x="0px" y="0px"
	 viewBox="0 0 480.005 480.005" style="enable-background:new 0 0 480.005 480.005;" xml:space="preserve">
<g>
	<g>
		<path d="M479.998,16.003v-16h-328v16h48c0.057,5.403-0.635,10.787-2.056,16h-45.944v16h38.24c-1.48,2.184-3.04,4.336-4.672,6.536
			c-11.521,13.337-17.769,30.425-17.568,48.048c-0.191,17.636,6.068,34.735,17.6,48.08c9.469,10.594,14.609,24.361,14.4,38.568
			c0.359,10.202-2.341,20.279-7.752,28.936c-3.533,1.626-6.983,3.429-10.336,5.4c-54.632-31.634-124.537-13.645-157.112,40.432
			h-16.8c-4.418,0.001-7.999,3.583-7.998,8.002c0,0.685,0.088,1.368,0.262,2.03l40,152c0.536,2.009,1.833,3.731,3.616,4.8
			l36.12,21.696v19.472c0,4.418,3.582,8,8,8h304c4.418,0,8-3.582,8-8v-19.472l36.12-21.672c1.783-1.069,3.08-2.791,3.616-4.8l40-152
			c1.135-4.27-1.405-8.652-5.675-9.787c-0.672-0.179-1.365-0.269-2.061-0.269h-11.392c-26.283-43.863-78.283-65.219-127.808-52.488
			c2.208-7.217,3.287-14.733,3.2-22.28c0.193-17.634-6.067-34.731-17.6-48.072c-9.47-10.596-14.61-24.366-14.4-38.576
			c-0.208-14.198,4.932-27.954,14.4-38.536c3.919-5.042,7.398-10.411,10.4-16.048h151.2v-16h-145.56
			c1.069-5.265,1.592-10.627,1.56-16H479.998z M255.998,16.003h24c0.057,5.403-0.635,10.787-2.056,16h-23.504
			C255.507,26.737,256.03,21.375,255.998,16.003z M270.238,48.003c-1.48,2.184-3.04,4.336-4.672,6.536
			c-11.521,13.337-17.769,30.425-17.568,48.048c-0.191,17.636,6.068,34.735,17.6,48.08c9.469,10.594,14.609,24.361,14.4,38.568
			c0.227,8.303-1.499,16.543-5.04,24.056c-6.982-2.2-14.159-3.724-21.432-4.552c1.672-6.365,2.503-12.923,2.472-19.504
			c0.193-17.634-6.067-34.731-17.6-48.072c-9.47-10.596-14.61-24.366-14.4-38.576c-0.208-14.198,4.932-27.954,14.4-38.536
			c3.919-5.042,7.398-10.411,10.4-16.048H270.238z M215.998,16.003h24c0.057,5.403-0.635,10.787-2.056,16h-23.504
			C215.507,26.737,216.03,21.375,215.998,16.003z M198.398,141.163c-9.47-10.596-14.61-24.366-14.4-38.576
			c-0.208-14.198,4.932-27.954,14.4-38.536c3.919-5.042,7.398-10.411,10.4-16.048h21.44c-1.48,2.184-3.04,4.336-4.672,6.536
			c-11.521,13.337-17.769,30.425-17.568,48.048c-0.191,17.636,6.068,34.735,17.6,48.08c13.573,15.797,17.93,37.527,11.496,57.336
			c-8.165,0.206-16.285,1.279-24.224,3.2c2.149-7.122,3.204-14.529,3.128-21.968C216.191,171.6,209.932,154.504,198.398,141.163z
			 M239.998,223.875c16.203,0.002,32.159,3.965,46.48,11.544c-3.257,2.745-6.358,5.669-9.288,8.76
			c-11.632-5.495-24.327-8.374-37.192-8.432c-11.515,0.012-22.912,2.316-33.528,6.776c-3.058-3.096-6.287-6.017-9.672-8.752
			C210.271,227.265,225.037,223.883,239.998,223.875z M266.726,256.939c-1.6,2.288-3.139,4.643-4.616,7.064h-38.912
			c-1.792-2.944-3.656-5.816-5.672-8.56C233.608,250.252,250.99,250.781,266.726,256.939z M123.998,224.003
			c31.451,0.031,61.057,14.846,79.936,40h-15.6c-32.867-35.532-88.316-37.692-123.848-4.824c-1.67,1.545-3.279,3.154-4.824,4.824
			h-15.6C62.942,238.849,92.548,224.034,123.998,224.003z M163.798,264.003h-79.6C108.268,247.832,139.729,247.832,163.798,264.003z
			 M461.598,280.003l-36.504,138.816l-37.216,22.328c-2.407,1.446-3.879,4.048-3.88,6.856v16h-288v-16
			c-0.001-2.808-1.473-5.41-3.88-6.856l-37.216-22.328L18.398,280.003H461.598z M321.366,264.003c24.161-16.349,55.839-16.349,80,0
			H321.366z M361.358,223.875h0.008c31.495,0.045,61.131,14.911,80,40.128h-15.552c-32.802-35.598-88.252-37.865-123.85-5.062
			c-1.756,1.618-3.445,3.307-5.062,5.062h-15.584C300.195,238.774,329.85,223.907,361.358,223.875z M305.598,54.539
			c-11.533,13.332-17.792,30.421-17.6,48.048c-0.191,17.636,6.068,34.735,17.6,48.08c9.469,10.594,14.609,24.361,14.4,38.568
			c0.352,10.613-2.572,21.076-8.376,29.968c-3.757,1.783-7.416,3.767-10.96,5.944c-3.492-2.181-7.097-4.176-10.8-5.976
			c4.256-9.395,6.353-19.624,6.136-29.936c0.193-17.634-6.067-34.731-17.6-48.072c-9.47-10.596-14.61-24.366-14.4-38.576
			c-0.208-14.198,4.932-27.954,14.4-38.536c3.919-5.042,7.398-10.411,10.4-16.048h21.44
			C308.798,50.187,307.198,52.339,305.598,54.539z M317.942,32.003h-23.504c1.069-5.265,1.592-10.627,1.56-16h24
			C320.055,21.405,319.363,26.79,317.942,32.003z"/>
	</g>
</g>
<g>
</g>
<g>
</g>
<g>
</g>
<g>
</g>
<g>
</g>
<g>
</g>
<g>
</g>
<g>
</g>
<g>
</g>
<g>
</g>
<g>
</g>
<g>
</g>
<g>
</g>
<g>
</g>
<g>
</g>
</svg>
