<svg xmlns="http://www.w3.org/2000/svg" viewBox="0 0 65 48"><title>icon-stop-people</title><path d="M35 33l-17 9.33v3.12A1.55 1.55 0 0 0 19.53 47h42.94A1.55 1.55 0 0 0 64 45.45v-3.12L47 33M47 33c6-5 6-13.73 6-13.73v-9.13C52.13 5 46.26 1 41 1s-11.13 4-12 9.14v9.13s0 8.78 6 13.73M18 33L1 42.33v3.12A1.55 1.55 0 0 0 2.53 47H13M28 1.7a12.37 12.37 0 0 0-4-.7c-5.26 0-11.13 4-12 9.14v9.13s0 8.78 6 13.73" fill="none" stroke="#4cb7aa" stroke-linecap="round" stroke-linejoin="round" stroke-width="2"/></svg>